Coordinates
version=1
nRows=8
nColumns=63
inDegrees=yes

Units are S.I. units (second, meters, Newtons, ...)
If the header above contains a line with 'inDegrees', this indicates whether rotational values are in degrees (yes) or radians (no).

endheader
time	pelvis_tilt	pelvis_list	pelvis_rotation	pelvis_tx	pelvis_ty	pelvis_tz	hip_flexion_r	hip_adduction_r	hip_rotation_r	knee_angle_r	knee_angle_r_beta	ankle_angle_r	subtalar_angle_r	mtp_angle_r	hip_flexion_l	hip_adduction_l	hip_rotation_l	knee_angle_l	knee_angle_l_beta	ankle_angle_l	subtalar_angle_l	mtp_angle_l	L5_S1_Flex_Ext	L5_S1_Lat_Bending	L5_S1_axial_rotation	L4_L5_Flex_Ext	L4_L5_Lat_Bending	L4_L5_axial_rotation	L3_L4_Flex_Ext	L3_L4_Lat_Bending	L3_L4_axial_rotation	L2_L3_Flex_Ext	L2_L3_Lat_Bending	L2_L3_axial_rotation	L1_L2_Flex_Ext	L1_L2_Lat_Bending	L1_L2_axial_rotation	L1_T12_Flex_Ext	L1_T12_Lat_Bending	L1_T12_axial_rotation	Abs_r3	Abs_r2	Abs_r1	Abs_t1	Abs_t2	neck_flexion	neck_bending	neck_rotation	arm_flex_r	arm_add_r	arm_rot_r	elbow_flex_r	pro_sup_r	wrist_flex_r	wrist_dev_r	arm_flex_l	arm_add_l	arm_rot_l	elbow_flex_l	pro_sup_l	wrist_flex_l	wrist_dev_l
      3.68571429	      0.08575899	     -1.12467773	     87.35512687	      0.19617890	      0.77943983	      0.80846045	      3.79526699	     -2.13109471	     17.28712887	      2.02924019	      0.03541692	     20.80143570	    -11.38872760	      0.00000000	      4.17273949	      1.25528208	     -7.75276075	      6.04146479	      0.10544345	     27.72059357	      0.79712837	      0.00000000	      0.22267892	     -0.26215812	     -1.29267601	      0.41353701	     -0.34867030	     -1.37346826	      0.36583919	     -0.63741126	     -1.37346826	      0.25449973	     -0.63741126	     -1.13109151	      0.20677964	     -0.53459284	     -1.05029926	      0.12723873	     -0.40608293	     -0.96950701	      1.59057323	     -2.96558512	     -7.18947615	      0.00000000	      0.00000000	     24.07168148	      7.82213046	      4.27473695	     20.19379978	     -1.57523987	     20.49943366	     73.61795884	     84.96769809	     -4.95337358	     15.58283851	     24.25369076	    -14.77456163	     11.00974401	     50.19608045	     86.54670419	     -7.06906323	      3.51752490
      3.71428571	      0.02119302	     -1.55132679	     88.41316722	      0.19501618	      0.77747458	      0.80850229	      4.27863088	     -2.22203755	     15.25426371	      2.59456570	      0.04528371	     21.54001728	     -9.66083215	      0.00000000	      4.99056599	      1.32201713	     -7.58218630	      6.67937394	      0.11657707	     28.54629966	      1.74633896	      0.00000000	      0.24316012	     -0.31475147	     -1.12307498	      0.45157267	     -0.41861946	     -1.19326717	      0.39948777	     -0.76528673	     -1.19326717	      0.27790771	     -0.76528673	     -0.98269061	      0.22579849	     -0.64184120	     -0.91249843	      0.13894170	     -0.48755003	     -0.84230624	      1.73686845	     -3.56053161	     -6.24620614	      0.00000000	      0.00000000	     25.14813871	      7.94360176	      2.22203464	     22.72865518	     -0.89313472	     20.46572049	     67.41219726	     86.34106540	     -4.92911798	     17.04986447	     24.88516408	    -12.92221491	     15.27852428	     46.07028874	     86.59137052	     -9.34075835	      2.22121116
      3.74285714	     -0.03984248	     -1.95988341	     89.48938362	      0.19373301	      0.77594995	      0.80824222	      4.84500291	     -2.31996533	     12.40184571	      3.37080391	      0.05883163	     22.52637659	     -7.16670737	      0.00000000	      5.70137712	      1.42452239	     -7.30354330	      7.06714268	      0.12334491	     29.28674974	      2.90888772	      0.00000000	      0.27172106	     -0.36171353	     -0.96770924	      0.50461317	     -0.48107899	     -1.02819107	      0.44641052	     -0.87947027	     -1.02819107	      0.31054999	     -0.87947027	     -0.84674559	      0.25232017	     -0.73760622	     -0.78626376	      0.15526141	     -0.56029425	     -0.72578193	      1.94087633	     -4.09177576	     -5.38210850	      0.00000000	      0.00000000	     26.14016729	      7.74151128	      0.47635290	     25.58288659	     -0.28453306	     20.36354403	     62.28302207	     87.41346324	     -5.15944077	     17.92319955	     25.77506544	    -11.28015824	     18.44952071	     43.87381929	     85.96189693	    -10.31373865	      2.95365465
      3.77142857	      0.00397948	     -2.24319910	     90.08682342	      0.19248247	      0.77517049	      0.80821017	      5.77134825	     -2.38818759	      7.39590471	      4.88117568	      0.08519259	     24.39648237	     -1.34210676	      0.00000000	      6.25382148	      1.42981871	     -7.56707890	      7.30965057	      0.12757747	     30.01296748	      4.20438608	      0.00000000	      0.29886488	     -0.37391134	     -0.81922683	      0.55502197	     -0.49730208	     -0.87042851	      0.49100511	     -0.90912802	     -0.87042851	      0.34157267	     -0.90912802	     -0.71682348	      0.27752593	     -0.76248000	     -0.66562180	      0.17077139	     -0.57918866	     -0.61442012	      2.13476196	     -4.22975981	     -4.55629387	      0.00000000	      0.00000000	     26.69019579	      7.57569540	     -0.14994210	     28.58029605	     -0.18882267	     20.91058191	     58.78548655	     87.99139513	     -5.48048330	     17.71669399	     26.53047786	     -9.84635231	     18.76233925	     44.23112966	     85.71272496	     -9.44562469	      5.18455583
      3.80000000	      0.13121081	     -2.36882402	     90.62979247	      0.19123412	      0.77509240	      0.80832793	      6.30809734	     -2.26514302	      6.81567923	      5.78970073	      0.10104934	     24.74040493	     -1.81805132	      0.00000000	      6.59033701	      1.40887158	     -7.02741106	      7.37258559	      0.12867589	     30.39677627	      4.46594724	      0.00000000	      0.31639025	     -0.36627024	     -0.70829029	      0.58756833	     -0.48713942	     -0.75255843	      0.51979754	     -0.89054947	     -0.75255843	      0.36160242	     -0.89054947	     -0.61975400	      0.29379999	     -0.74689828	     -0.57548586	      0.18078539	     -0.56735261	     -0.53121772	      2.25994391	     -4.14332225	     -3.93929811	      0.00000000	      0.00000000	     26.97459191	      7.18107384	     -0.87745090	     31.44842793	     -0.42239720	     21.06765381	     57.20599231	     88.43325401	     -5.48130788	     16.35301995	     27.80593379	     -9.07820186	     18.76956831	     46.34103703	     85.64203678	     -8.74653185	      5.89607315
      3.82857143	      0.36613426	     -2.53001167	     91.31985284	      0.18940929	      0.77519246	      0.80842425	      6.47224247	     -2.14295284	      6.17303120	      5.84050468	      0.10193604	     24.88489079	     -1.96203882	      0.00000000	      6.95093856	      1.30761148	     -6.28820653	      7.47596232	      0.13048016	     30.77044675	      4.84918908	      0.00000000	      0.35174200	     -0.33534707	     -0.70511159	      0.65322006	     -0.44601160	     -0.74918106	      0.57787693	     -0.81536286	     -0.74918106	      0.40200593	     -0.81536286	     -0.61697264	      0.32662762	     -0.68383974	     -0.57290317	      0.20098538	     -0.51945261	     -0.52883369	      2.51245792	     -3.79351310	     -3.92161913	      0.00000000	      0.00000000	     27.17790144	      6.34092001	     -1.70162682	     35.30899414	     -0.75967675	     22.05552126	     55.41427511	     88.53314717	     -6.53693639	     10.97039147	     28.50549894	     -8.23645085	     16.66963875	     50.00748813	     85.81938443	     -7.51786909	      5.59177702
      3.85714286	      0.75737034	     -2.59814184	     92.07212726	      0.18738216	      0.77534549	      0.80885714	      6.47603858	     -1.88124040	      5.86510656	      5.74023987	      0.10018609	     24.97034893	     -2.50616829	      0.00000000	      7.24500597	      1.05017508	     -5.49302039	      7.66330912	      0.13374998	     31.13480963	      5.21015372	      0.00000000	      0.37928458	     -0.27919316	     -0.60355414	      0.70436939	     -0.37132690	     -0.64127627	      0.62312664	     -0.67883024	     -0.64127627	      0.43348435	     -0.67883024	     -0.52810987	      0.35220366	     -0.56933069	     -0.49038774	      0.21672321	     -0.43247020	     -0.45266560	      2.70919183	     -3.15828884	     -3.35678706	      0.00000000	      0.00000000	     27.47170142	      4.88337557	     -2.24582246	     40.76370567	     -0.73888323	     21.97149890	     52.08074877	     88.44915449	     -7.30486661	      6.46360385	     29.03876088	     -6.95702348	     15.72713268	     53.91625594	     84.82552074	     -7.08067232	      4.65371039
      3.88571429	      1.24813656	     -2.53753469	     92.97717715	      0.18514617	      0.77564115	      0.80877033	      6.19139405	     -1.53249546	      5.67249485	      5.42279576	      0.09464564	     24.86966049	     -3.24752763	      0.00000000	      7.31255150	      0.70670726	     -4.51965734	      7.71013318	      0.13456721	     31.39779777	      5.60312967	      0.00000000	      0.41196448	     -0.21997557	     -0.31432778	      0.76505924	     -0.29256751	     -0.33397327	      0.67681645	     -0.53484861	     -0.33397327	      0.47083421	     -0.53484861	     -0.27503681	      0.38255022	     -0.44857419	     -0.25539132	      0.23539651	     -0.34074216	     -0.23574583	      2.94262111	     -2.48840769	     -1.74819681	      0.00000000	      0.00000000	     27.77202969	      3.19797093	     -3.16236236	     47.86044017	     -1.23960329	     22.13615320	     46.49493296	     88.00021560	     -7.93359318	      2.62861026	     29.61986322	     -5.22697813	     16.91932607	     58.02807861	     82.47842748	     -6.66486423	      5.72984778
